<svg xmlns="http://www.w3.org/2000/svg" width="100" height="100" viewBox="0 0 512 512" fill="none" role="img" aria-label="Логотип мессенджера Диалог" preserveAspectRatio="xMidYMid meet"><metadata><rdf:RDF xmlns:rdf="http://www.w3.org/1999/02/22-rdf-syntax-ns#" xmlns:dc="http://purl.org/dc/elements/1.1/"><rdf:Description><dc:creator>RealFaviconGenerator</dc:creator><dc:source>https://realfavicongenerator.net</dc:source></rdf:Description></rdf:RDF></metadata><defs>
    <linearGradient id="blueBubble" x1="88" y1="118" x2="372" y2="340" gradientUnits="userSpaceOnUse">
      <stop offset="0" stop-color="#1E6BFF"></stop>
      <stop offset="1" stop-color="#0558F2"></stop>
    </linearGradient>

    <linearGradient id="greenBubble" x1="246" y1="246" x2="440" y2="397" gradientUnits="userSpaceOnUse">
      <stop offset="0" stop-color="#61E3C2"></stop>
      <stop offset="1" stop-color="#34CFAE"></stop>
    </linearGradient>
  </defs><path d="M106 120H310C356.4 120 394 157.6 394 204V226C394 230.4 390.4 234 386 234H289C251.4 234 221 264.4 221 302V310H171L112 348C106.7 351.4 100 347.6 100 341.3V305.6C78.5 291.7 64 267.5 64 240V162C64 138.8 82.8 120 106 120Z" fill="url(#blueBubble)"></path><circle cx="154" cy="222" r="17" fill="#FFFFFF"></circle><circle cx="207" cy="222" r="17" fill="#FFFFFF"></circle><circle cx="260" cy="222" r="17" fill="#FFFFFF"></circle><path d="M304 226H398C435.6 226 466 256.4 466 294V338C466 358.7 454.6 376.8 438 386.3V431.2C438 437.3 431.3 441 426.2 437.7L376 405H304C266.4 405 236 374.6 236 337V294C236 256.4 266.4 226 304 226Z" fill="url(#greenBubble)" stroke="#FFFFFF" stroke-width="16" stroke-linejoin="round"></path><circle cx="313" cy="316" r="14" fill="#FFFFFF"></circle><circle cx="357" cy="316" r="14" fill="#FFFFFF"></circle><circle cx="401" cy="316" r="14" fill="#FFFFFF"></circle></svg>